<svg width="128" height="84" viewBox="0 0 128 84" fill="none" xmlns="http://www.w3.org/2000/svg">
<path d="M3 24.6337C9.09535 19.2812 25.0802 11.7876 39.0832 24.6337C53.0862 37.4799 70.277 29.9863 77.1221 24.6337M3 24.6337C9.09535 19.2812 25.0802 11.7876 39.0832 24.6337C53.0862 37.4799 70.277 29.9863 77.1221 24.6337M3 24.6337C9.09535 19.2812 25.0802 11.7876 39.0832 24.6337C53.0862 37.4799 70.277 29.9863 77.1221 24.6337" stroke="black" stroke-width="6" stroke-linecap="round" stroke-linejoin="round"/>
<path d="M3.35461 53.0058C9.4208 47.6533 25.3291 40.1597 39.2651 53.0058C53.2012 65.852 70.3098 58.3584 77.1221 53.0058M3.35461 53.0058C9.4208 47.6533 25.3291 40.1597 39.2651 53.0058C53.2012 65.852 70.3098 58.3584 77.1221 53.0058M3.35461 53.0058C9.4208 47.6533 25.3291 40.1597 39.2651 53.0058C53.2012 65.852 70.3098 58.3584 77.1221 53.0058" stroke="black" stroke-width="6" stroke-linecap="round" stroke-linejoin="round"/>
<path d="M3 38.8198C9.06619 33.4672 24.9745 25.9736 38.9105 38.8198C52.8465 51.6659 69.9551 44.1723 76.7674 38.8198M3 38.8198C9.06619 33.4672 24.9745 25.9736 38.9105 38.8198C52.8465 51.6659 69.9551 44.1723 76.7674 38.8198M3 38.8198C9.06619 33.4672 24.9745 25.9736 38.9105 38.8198C52.8465 51.6659 69.9551 44.1723 76.7674 38.8198" stroke="black" stroke-width="6" stroke-linecap="round" stroke-linejoin="round"/>
<circle cx="86.1657" cy="41.8343" r="38.8343" stroke="black" stroke-width="6"/>
</svg>
